/* XPM */
static char * D:\Dokumente\Studium\Kurse\Wissensverarbeitung\ea\Code\black_queen_xpm[] = {
"30 30 41 1",
" 	c None",
".	c #000000",
"+	c #FFFFFF",
"@	c #FCFCFC",
"#	c #F1F1F1",
"$	c #D6D6D6",
"%	c #A4A4A4",
"&	c #4B4B4B",
"*	c #B2B2B2",
"=	c #0D0D0D",
"-	c #0A0A0A",
";	c #303030",
">	c #858585",
",	c #EFEFEF",
"'	c #B5B5B5",
")	c #212121",
"!	c #E8E8E8",
"~	c #535353",
"{	c #646464",
"]	c #B4B4B4",
"^	c #1A1A1A",
"/	c #E2E2E2",
"(	c #050505",
"_	c #F7F7F7",
":	c #181818",
"<	c #E1E1E1",
"[	c #5F5F5F",
"}	c #AEAEAE",
"|	c #1E1E1E",
"1	c #E4E4E4",
"2	c #4A4A4A",
"3	c #090909",
"4	c #282828",
"5	c #747474",
"6	c #EBEBEB",
"7	c #ADADAD",
"8	c #AFAFAF",
"9	c #0B0B0B",
"0	c #F3F3F3",
"a	c #DBDBDB",
"b	c #A8A8A8",
"                              ",
"             ...              ",
"         ...........          ",
"       ...............        ",
"      .................       ",
"     ...................      ",
"    .....................     ",
"   .......................    ",
"   .......+++@#$%&........    ",
"  ........++++++++*=.......   ",
"  ........++..-;>,+'.......   ",
"  ........++.....)!+~......   ",
"  ........++......{+]......   ",
" .........++......^+/.......  ",
" .........++......(+_.......  ",
" .........++......:+<.......  ",
"  ........++......[+}......   ",
"  ........++.....|1+2......   ",
"  ........++..3456+7.......   ",
"  ........++++++++89.......   ",
"   .......+++@0ab&........    ",
"   .......................    ",
"    .....................     ",
"     ...................      ",
"      .................       ",
"       ...............        ",
"         ...........          ",
"             ...              ",
"                              ",
"                              "};
