/* XPM */
static char * D:\Dokumente\Studium\Kurse\Wissensverarbeitung\ea\Code\black_normal_xpm[] = {
"30 30 2 1",
" 	c None",
".	c #000000",
"                              ",
"                              ",
"                              ",
"            .......           ",
"         .............        ",
"        ...............       ",
"       .................      ",
"      ...................     ",
"     .....................    ",
"    .......................   ",
"    .......................   ",
"    .......................   ",
"   .........................  ",
"   .........................  ",
"   .........................  ",
"   .........................  ",
"   .........................  ",
"   .........................  ",
"   .........................  ",
"    .......................   ",
"    .......................   ",
"    .......................   ",
"     .....................    ",
"      ...................     ",
"       .................      ",
"        ...............       ",
"         .............        ",
"            .......           ",
"                              ",
"                              "};
