/* XPM */
static char * D:\Dokumente\Studium\Kurse\Wissensverarbeitung\ea\Code\white_queen_xpm[] = {
"30 30 42 1",
" 	c None",
".	c #000000",
"+	c #FFFFFF",
"@	c #020202",
"#	c #0D0D0D",
"$	c #282828",
"%	c #5A5A5A",
"&	c #B3B3B3",
"*	c #4C4C4C",
"=	c #F1F1F1",
"-	c #FEFEFE",
";	c #F4F4F4",
">	c #CECECE",
",	c #797979",
"'	c #0F0F0F",
")	c #494949",
"!	c #DDDDDD",
"~	c #161616",
"{	c #ABABAB",
"]	c #9A9A9A",
"^	c #4A4A4A",
"/	c #E4E4E4",
"(	c #1C1C1C",
"_	c #F9F9F9",
":	c #070707",
"<	c #E6E6E6",
"[	c #1D1D1D",
"}	c #9F9F9F",
"|	c #505050",
"1	c #E0E0E0",
"2	c #1A1A1A",
"3	c #B4B4B4",
"4	c #F5F5F5",
"5	c #D6D6D6",
"6	c #8A8A8A",
"7	c #131313",
"8	c #515151",
"9	c #4F4F4F",
"0	c #F3F3F3",
"a	c #0B0B0B",
"b	c #232323",
"c	c #565656",
"                              ",
"                              ",
"                              ",
"            .......           ",
"         ...+++++++...        ",
"        .+++++++++++++.       ",
"       .+++++++++++++++.      ",
"      .+++++++++++++++++.     ",
"     .+++++++++++++++++++.    ",
"    .++++++...@#$%&+++++++.   ",
"    .++++++........*=+++++.   ",
"    .++++++..+-;>,'.)+++++.   ",
"   .+++++++..+++++!~.{+++++.  ",
"   .+++++++..++++++].^+++++.  ",
"   .+++++++..++++++/.(+++++.  ",
"   .+++++++..++++++_.:+++++.  ",
"   .+++++++..++++++<.[+++++.  ",
"   .+++++++..++++++}.|+++++.  ",
"   .+++++++..+++++12.3+++++.  ",
"    .++++++..++4567.8+++++.   ",
"    .++++++........90+++++.   ",
"    .++++++...@abc&+++++++.   ",
"     .+++++++++++++++++++.    ",
"      .+++++++++++++++++.     ",
"       .+++++++++++++++.      ",
"        .+++++++++++++.       ",
"         ...+++++++...        ",
"            .......           ",
"                              ",
"                              "};
